<?xml version="1.0" encoding="UTF-8" standalone="no"?>
<svg width="17px" height="17px" viewBox="0 0 17 17" version="1.1" xmlns="http://www.w3.org/2000/svg" xmlns:xlink="http://www.w3.org/1999/xlink">
    <!-- Generator: sketchtool 39.1 (31720) - http://www.bohemiancoding.com/sketch -->
    <title>3C61B8DA-C619-4D62-8EC2-D1613424A591</title>
    <desc>Created with sketchtool.</desc>
    <defs>
        <rect id="path-1" x="0" y="0" width="170.949179" height="347" rx="3"></rect>
        <filter x="-50%" y="-50%" width="200%" height="200%" filterUnits="objectBoundingBox" id="filter-2">
            <feOffset dx="1" dy="1" in="SourceAlpha" result="shadowOffsetOuter1"></feOffset>
            <feGaussianBlur stdDeviation="1" in="shadowOffsetOuter1" result="shadowBlurOuter1"></feGaussianBlur>
            <feComposite in="shadowBlurOuter1" in2="SourceAlpha" operator="out" result="shadowBlurOuter1"></feComposite>
            <feColorMatrix values="0 0 0 0 0   0 0 0 0 0   0 0 0 0 0  0 0 0 0.15 0" type="matrix" in="shadowBlurOuter1"></feColorMatrix>
        </filter>
        <mask id="mask-3" maskContentUnits="userSpaceOnUse" maskUnits="objectBoundingBox" x="0" y="0" width="170.949179" height="347" fill="white">
            <use xlink:href="#path-1"></use>
        </mask>
        <rect id="path-4" x="0" y="0" width="170.949179" height="347" rx="3"></rect>
        <mask id="mask-5" maskContentUnits="userSpaceOnUse" maskUnits="objectBoundingBox" x="0" y="0" width="170.949179" height="347" fill="white">
            <use xlink:href="#path-4"></use>
        </mask>
    </defs>
    <g id="Tablet" stroke="none" stroke-width="1" fill="none" fill-rule="evenodd">
        <g id="T_Gallery-02" transform="translate(-596.000000, -464.000000)">
            <g id="Group-5" transform="translate(20.000000, 227.000000)">
                <g id="01" transform="translate(558.000000, 0.000000)">
                    <g id="Group-7">
                        <g id="Group">
                            <g id="01">
                                <g id="Rectangle-3">
                                    <use fill="black" fill-opacity="1" filter="url(#filter-2)" xlink:href="#path-1"></use>
                                    <use stroke="#CCCCCC" mask="url(#mask-3)" stroke-width="2" fill="#FFFFFF" fill-rule="evenodd" xlink:href="#path-1"></use>
                                </g>
                                <g id="Color-Swatches" transform="translate(18.000000, 237.000000)">
                                    <g id="Group-6">
                                        <g id="Group-2">
                                            <g id="pantone">
                                                <path d="M2.81202801,14.0749902 C1.27152481,13.6207765 0.38448087,11.9848039 0.834658507,10.4281623 L3.61765611,0.803442289 L9.20112459,2.4485157 L6.41675114,12.0774599 C6.05658839,13.3232333 4.9093371,14.193197 3.62694309,14.193197 C3.3525301,14.1931626 3.07832349,14.153291 2.81202801,14.0749902 L2.81202801,14.0749902 Z" id="Path" fill="#F1F2F2"></path>
                                                <path d="M9.80209522,2.95177039 L13.7086795,6.48660738 L7.05600476,13.9382728 C6.50549337,14.5546859 5.71843922,14.908173 4.89636973,14.908173 L4.89619775,14.908173 C4.75486371,14.908173 4.35624599,14.8572775 4.29674054,14.8445708 C5.61377154,14.5910546 6.72126081,13.6059062 7.10591366,12.2760281 L9.80209522,2.95177039 L9.80209522,2.95177039 Z" id="Path" fill="#BBBDBF"></path>
                                                <path d="M6.83277334,15.8931497 C6.48100326,16.038281 6.11172552,16.1117052 5.73560293,16.1117052 L5.73543095,16.1117052 C5.07409496,16.1117052 4.45303694,15.8886165 3.95504856,15.4994475 C3.96567699,15.5022979 4.52575053,15.6347225 4.89619775,15.6242481 L4.89636973,15.6242481 C5.92261514,15.6242481 6.90507418,15.1833593 7.59145061,14.4144656 L14.0420476,7.18935752 L16.029392,12.1005037 L6.83277334,15.8931497 L6.83277334,15.8931497 Z" id="Path" fill="#9B9B9B"></path>
                                                <path d="M16.8276593,12.161702 L14.5583692,6.55357521 C14.5921807,6.42822517 14.5565462,6.2890351 14.4538735,6.19569224 L9.99688098,2.14097881 C9.9730444,2.01260662 9.87989946,1.90188647 9.74606379,1.86249565 L3.47473984,0.0146298959 C3.38300514,-0.0122946074 3.2844256,-0.00178580889 3.20087719,0.0439927152 C3.11719121,0.0898055818 3.05520923,0.167110501 3.02858656,0.25866755 L0.145461585,10.2295941 C-0.397585827,12.1080247 0.629519492,14.0800042 2.44608669,14.7093644 C3.03904301,16.0017406 4.31201246,16.8277802 5.73546535,16.8277802 L5.73563733,16.8277802 C6.20628071,16.8277802 6.66749953,16.7358111 7.10663599,16.5546888 L16.6320825,12.6267678 C16.814176,12.5519356 16.9013704,12.3442323 16.8276593,12.161702 L16.8276593,12.161702 Z M9.80209522,2.95177039 L13.7086795,6.48660738 L7.05600476,13.9382728 C6.50549337,14.5546859 5.71843922,14.908173 4.89636973,14.908173 L4.89619775,14.908173 C4.75486371,14.908173 4.35624599,14.8572775 4.29674054,14.8445708 C5.61377154,14.5910546 6.72126081,13.6059062 7.10591366,12.2760281 L9.80209522,2.95177039 L9.80209522,2.95177039 Z M2.81202801,14.0749902 C1.27152481,13.6207765 0.38448087,11.9848039 0.834658507,10.4281623 L3.61765611,0.803442289 L9.20112459,2.4485157 L6.41675114,12.0774599 C6.05658839,13.3232333 4.9093371,14.193197 3.62694309,14.193197 C3.3525301,14.1931626 3.07832349,14.153291 2.81202801,14.0749902 L2.81202801,14.0749902 Z M6.83277334,15.8931497 C6.48100326,16.038281 6.11172552,16.1117052 5.73560293,16.1117052 L5.73543095,16.1117052 C5.07409496,16.1117052 4.45303694,15.8886165 3.95504856,15.4994475 C3.96567699,15.5022979 4.52575053,15.6347225 4.89619775,15.6242481 L4.89636973,15.6242481 C5.92261514,15.6242481 6.90507418,15.1833593 7.59145061,14.4144656 L14.0420476,7.18935752 L16.029392,12.1005037 L6.83277334,15.8931497 L6.83277334,15.8931497 Z" id="Shape" fill="#333333"></path>
                                                <path d="M3.76187943,10.7818555 C3.36398404,10.6646447 2.94727392,10.8952201 2.8311179,11.2968553 C2.71496189,11.6985593 2.94338714,12.119186 3.34128254,12.2364312 C3.73917793,12.3537108 4.15588805,12.123101 4.27204406,11.7214314 C4.38820008,11.3197618 4.15977482,10.8991008 3.76187943,10.7818555 L3.76187943,10.7818555 Z" id="Shape" fill="#333333"></path>
                                            </g>
                                        </g>
                                    </g>
                                </g>
                                <use id="Rectangle-3" stroke="#CCCCCC" mask="url(#mask-5)" stroke-width="2" xlink:href="#path-4"></use>
                            </g>
                        </g>
                    </g>
                </g>
            </g>
        </g>
    </g>
</svg>